<?xml version="1.0" encoding="utf-8"?>
<!-- Generator: Adobe Illustrator 24.3.0, SVG Export Plug-In . SVG Version: 6.00 Build 0)  -->
<svg version="1.1" id="Capa_1" xmlns="http://www.w3.org/2000/svg" xmlns:xlink="http://www.w3.org/1999/xlink" x="0px" y="0px"
	 viewBox="0 0 1002.5 524" style="enable-background:new 0 0 1002.5 524;" xml:space="preserve">
<style type="text/css">
	.st0{fill:#009540;}
	.st1{fill:#93C01F;}
	.st2{fill:#E20613;}
</style>
<path class="st0" d="M396.9,13.2c-15.5,24.4-12.3,119.4,0,179c29.2,141.1,119.9,135.3,129.4,83.5C538.7,207.6,428.7-36.7,396.9,13.2
	z"/>
<path class="st1" d="M511,15.8c-17.7,3.4-12.3,60.5-5.2,137.7c8,86.1,13.5,144.8,31.5,146.8c22,2.4,67.9-80.2,52.4-163.7
	C577.8,72,530.2,12,511,15.8z"/>
<path class="st2" d="M45.7,516.1h929C972.2,374,857.3,259.6,715.8,259.6c-89.2,0-167.8,45.5-214.5,114.6
	C454.7,305,376,259.6,286.7,259.6c-142,0-257.2,115.2-258.9,257.9C33.7,516.6,39.7,516.1,45.7,516.1z"/>
</svg>
